<svg xmlns="http://www.w3.org/2000/svg" viewBox="0 0 100 100" width="100" height="100">
  <!-- Background Circle -->
  <circle cx="50" cy="50" r="48" fill="#B91C1C" stroke="#7F1D1D" stroke-width="2"/>
  
  <!-- Brain/Quiz Icon -->
  <g fill="white">
    <!-- Question Mark -->
    <path d="M 45 35 Q 45 25, 55 25 Q 65 25, 65 35 Q 65 42, 55 45 L 55 52" 
          stroke="white" stroke-width="4" stroke-linecap="round" fill="none"/>
    <circle cx="55" cy="60" r="3" fill="white"/>
    
    <!-- Book Pages -->
    <path d="M 30 45 L 30 75 Q 30 78, 33 78 L 45 78 Q 48 78, 48 75 L 48 45 Z" 
          fill="white" opacity="0.9"/>
    <path d="M 35 50 L 43 50 M 35 55 L 43 55 M 35 60 L 43 60 M 35 65 L 43 65" 
          stroke="#B91C1C" stroke-width="1.5" stroke-linecap="round"/>
    
    <!-- Smart Star -->
    <g transform="translate(70, 30)">
      <path d="M 0 -6 L 1.5 -2 L 6 -1 L 2 2 L 3 6 L 0 4 L -3 6 L -2 2 L -6 -1 L -1.5 -2 Z" 
            fill="#FCD34D" stroke="#F59E0B" stroke-width="0.5"/>
    </g>
  </g>
  
  <!-- Shine Effect -->
  <circle cx="35" cy="35" r="8" fill="white" opacity="0.2"/>
</svg>
